<?xml version="1.0" encoding="UTF-8"?>
<svg id="OrganicBio" xmlns="http://www.w3.org/2000/svg" viewBox="0 0 250 150">
  <defs>
    <style>
      .cls-1 {
        fill: #cd2e41;
      }

      .cls-2 {
        fill: #efbc3d;
      }

      .cls-3 {
        fill: #718c3c;
      }

      .cls-4 {
        fill: #739831;
      }

      .cls-5 {
        fill: #1b140c;
      }

      .cls-6 {
        fill: #e8954f;
      }

      .cls-7 {
        fill: #6b8237;
      }

      .cls-8 {
        fill: #495e3a;
      }
    </style>
  </defs>
  <path class="cls-7" d="M118.1,29.56c-.02-.12.13-.2.22-.28.28-.23.62-.36.95-.5s.69-.26,1-.42c-1.17.04-2.35.37-3.38.94-.32.17-.71.42-1.01.63-.4.28-.64.3-1.1-.15,2.38-2.13,4.78-4.17,7.92-5.15-1.35-.02-2.78.61-5.22,2.28-.12-.31-.18-.46-.24-.67-.05-.15-.08-.12-.12-.03-.23.62-.52,2.13-.79,1.18-.07-.25-.07-.57-.07-.57,0-.34.07-.66.17-.97.18-.58.48-1.16.86-1.65.11-.14.22-.27.35-.38.54-.47,1.58-.77,2.27-.89,1.29-.22,2.29-.21,3.58-.14.68.04,1.36.14,2.03.26,0,0,1.99.3,2.21.59.01.01-.37.41-.39.43-.11.12-.21.24-.32.36-.21.24-.41.49-.61.75-.39.51-.76,1.04-1.07,1.6-.33.57-.6,1.19-1.01,1.71-.5.64-1.12,1.21-1.86,1.55s-1.57.5-2.38.46c-.23-.01-.46-.03-.68-.07-.11-.02-.23-.06-.34-.09,0,0-.89-.23-.97-.79Z"/>
  <g>
    <path class="cls-5" d="M163.57,35.04c1.36-1.34,2.56-2.41,3.98-3.16,4.49-2.37,9.14-2.65,13.77-.57,4.56,2.05,6.64,5.93,7.04,10.76.15,1.85.05,3.72.05,5.58,0,5.43,0,10.86-.01,16.29,0,1.55-.57,2.31-1.7,2.34-1.16.03-1.69-.68-1.69-2.29,0-6.58,0-13.17.01-19.75,0-1.36-.07-2.72-.41-4.03-.99-3.78-3.51-6.04-7.28-6.76-5.15-.99-9.37.74-12.69,4.76-.73.89-1.04,1.85-1.03,3.04.05,7.49.03,14.98.03,22.47,0,.4.01.81-.07,1.2-.2.89-1.01,1.46-1.89,1.39-.84-.07-1.36-.65-1.44-1.64-.03-.4-.01-.8-.01-1.21,0-10.15,0-20.31,0-30.46,0-.3-.01-.6.01-.9.09-.98.74-1.6,1.65-1.59.94.01,1.63.61,1.7,1.56.06.9.01,1.8.01,3Z"/>
    <path class="cls-5" d="M222.17,66.22c-8.69.13-16.09-5.95-17.55-14.78-.88-5.35-.08-10.41,3.04-14.93,2.96-4.29,7.12-6.64,12.28-7.25,4.75-.56,9.04.58,12.92,3.36.45.32.89.66,1.21,1.12.49.7.44,1.47-.1,2.06-.53.58-1.31.68-2.05.23-.38-.24-.72-.55-1.08-.81-4.9-3.63-11.72-3.83-16.65-.48-3.23,2.2-5.15,5.3-6.01,9.05-1.13,4.89-.45,9.51,2.58,13.58,3.54,4.76,8.42,6.23,14.12,5.32,2.52-.4,4.78-1.46,6.71-3.18.19-.17.39-.32.61-.43.65-.33,1.29-.23,1.79.26.56.55.71,1.24.37,1.92-.33.65-.88,1.09-1.46,1.5-3.25,2.26-6.81,3.58-10.74,3.49Z"/>
    <path class="cls-5" d="M73.34,35.1c.36-.28.51-.38.73-.58,3.11-2.77,6.44-4.53,10.64-4.45.56.01,1.1.05,1.61.3.78.37,1.31,1.23,1.16,1.91-.18.78-.85,1.26-1.84,1.16-1.56-.17-3.1-.19-4.62.3-2.66.86-4.85,2.37-6.47,4.66-.8,1.13-1.26,2.34-1.25,3.78.02,5.27.02,10.65.01,15.98,0,1.91,0,3.82-.03,5.73-.03,1.62-.67,2.43-1.84,2.41-1.1-.02-1.65-.79-1.65-2.41.01-10.3.03-20.6.05-30.91,0-.3-.01-.61.02-.9.11-.99.77-1.63,1.64-1.63.99,0,1.74.63,1.81,1.64.07,1,.01,2,.01,3.01Z"/>
    <path class="cls-5" d="M174.25,109.89c0,7.23-.03,14.47.02,21.7,0,1.48-.66,2.03-1.76,2.12-1.16.1-1.91-.56-2-1.73-.03-.4-.02-.8-.02-1.21,0-13.97,0-27.93,0-41.9,0-.5-.02-1.01.04-1.51.11-1.06.74-1.6,1.8-1.61,1.06,0,1.77.54,1.91,1.52.06.44.04.9.04,1.35,0,7.08,0,14.17,0,21.25,0,0-.02,0-.03,0Z"/>
    <path class="cls-5" d="M195.37,48.13c0-5.18,0-10.35,0-15.53,0-.25-.03-.51,0-.75.13-.91.74-1.49,1.58-1.52.99-.04,1.66.46,1.84,1.4.06.29.04.6.04.9,0,10.1,0,20.2,0,30.3,0,.65.07,1.31-.13,1.95-.26.83-.94,1.37-1.77,1.35-.84-.02-1.45-.58-1.58-1.52-.06-.44-.04-.9-.04-1.35,0-5.08,0-10.15,0-15.23.01,0,.03,0,.04,0Z"/>
    <path class="cls-5" d="M164.51,112.66c-1.23-6.19-4.64-10.55-10.83-12.47-.28-.09-.56-.19-.97-.34,1.37-.82,2.51-1.53,3.45-2.55,3.81-4.15,4.56-10.79,2.09-15.93-2.56-5.32-7.19-7.73-12.87-7.96-5.62-.22-11.26-.05-16.89-.06-.85,0-1.71-.04-2.56,0-.94.05-1.46.58-1.56,1.5-.03.3,0,.6,0,.9,0,18.45.01,36.89.02,55.34,0,.4-.03.81.01,1.21.08.77.59,1.27,1.36,1.37.3.04.6.02.9.02,6.28,0,12.57-.02,18.85,0,2.43,0,4.83-.2,7.13-.93,6.36-2.03,10.16-5.6,11.67-11.92.65-2.73.76-5.48.22-8.22ZM128.28,78.31c0-1,.01-1.02.95-1.02,5.23,0,10.46-.12,15.68.07,4.34.15,7.93,1.93,9.73,6.15,2.54,5.95-.16,13.07-7.71,14.9-.78.19-1.57.29-2.38.29-5.03,0-10.05,0-15.08.02-1.32,0-1.17.08-1.17-1.25,0-3.17,0-6.33,0-9.5h-.01c0-3.22,0-6.43,0-9.65ZM159.84,121.66c-1.56,4.09-4.68,6.41-8.8,7.46-1.6.41-3.26.61-4.92.61-5.53.01-11.06,0-16.59.01-1.2,0-1.22.14-1.22-1.23,0-4.12,0-8.25,0-12.37h-.02c0-4.07,0-8.15,0-12.22,0-1.31-.12-1.26,1.18-1.26,5.38.01,10.76,0,16.14.02,2.27,0,4.49.32,6.66,1.04,4.43,1.48,7.11,4.53,8.16,9.04.7,3.01.51,5.99-.59,8.88Z"/>
    <path class="cls-5" d="M114.87,59.81c-.95-.68-1.97-1.24-3.14-1.87-.1-.05-.1-.2,0-.25,11.35-5.83,10.33-20.38,1.21-25.55-.09-.05-.1-.17-.02-.23.74-.58,1.43-1.01,2.18-1.45.48-.29.86-.51,1.25-.82.27-.21.37-.42.21-.72-.16-.29-.47-.27-.7-.19-1.4.45-2.83,1.03-4.22,1.67-.66.3-1.27.24-1.99.02-2.68-.81-5.31-1.1-8.03-.6-5.08.93-9.06,3.45-11.34,8.23-2.68,5.63-1.95,12.67,3.19,17.23,1.14,1.01,2.39,1.84,3.73,2.6.1.06.09.2-.01.25-2.09.93-3.93,2.11-5.4,3.86-3.55,4.24-3.61,12.6,2.8,16.98,3.95,2.69,8.37,3.23,12.97,2.63,2.56-.34,4.93-1.27,7.07-2.78,6.44-4.55,7.03-14.16.23-18.99ZM96.56,53.65c-3.67-2.86-4.95-6.74-4.13-11.23.78-4.26,3.23-7.24,7.36-8.76,5.79-2.13,12.38.16,15.27,5.35.99,1.78,1.53,3.69,1.5,5.76-.1,4.97-2.46,8.53-6.96,10.49-4.58,1.99-9.04,1.51-13.04-1.59ZM104.44,78.38c-2.63.02-5.07-.48-7.31-1.86-3.81-2.36-5.36-6.71-3.84-10.66.54-1.4,1.5-2.46,2.63-3.41,5.14-4.32,13.99-3.53,18.15.97,2.95,3.19,3.01,7.88-.06,11.44,0,0-2.87,3.53-9.57,3.53Z"/>
    <path class="cls-5" d="M207.16,80.13c-15.49-.25-27.55,12.29-27.38,26.66-.39,13.97,11.47,26.74,26.37,26.94,13.15.17,26.62-10.6,26.91-26.31.28-15.32-12.48-27.07-25.9-27.28ZM206.55,130.56c-11.98.21-23.89-10.09-23.69-23.78-.16-12.5,10.95-23.46,23.58-23.45,10.9.01,23.57,9.17,23.49,24.05-.06,12.12-10.2,22.95-23.38,23.18Z"/>
    <path class="cls-5" d="M64.37,36.31c-2.31-12.86-14.92-21.92-27.88-19.7-11.95,2.04-20.17,11.68-20.97,23.32-.32,4.65.59,9.12,2.94,13.18,4.82,8.34,12.05,12.79,20.21,13.19,6.73,0,12.04-1.67,16.09-4.83,8.25-6.44,11.45-14.91,9.61-25.16ZM39.69,63.06c-11.78-.41-21.11-10.4-21.08-21.82.03-11.66,9.82-22.15,22.38-21.7,10.99.39,20.94,9.45,20.74,21.87.09,12.89-11,22.03-22.04,21.65Z"/>
    <path class="cls-5" d="M149.6,63.12c-.02.4-.05,1.36.06,1.76.26.93.8,1.35,1.73,1.34.91-.02,1.45-.5,1.59-1.46.05-.35.04-.7.04-1.05,0-6.59,0-13.17-.02-19.76,0-1.41-.04-2.81-.24-4.21-.65-4.54-3-7.78-7.44-9.1-5.24-1.57-10.32-.88-15.1,1.83-.65.37-1.29.79-1.7,1.45-.37.59-.29,1.29.16,1.81.51.58,1.04.69,1.75.35.23-.11.44-.25.65-.39,3.56-2.34,7.46-3.13,11.63-2.39,2.94.53,5.36,1.94,6.23,4.99.72,2.53.56,4.96.56,7.64-2.15-.75-4.12-1.31-6.15-1.66-3.56-.6-7.1-.64-10.57.48-4.48,1.45-7.49,4.27-7.98,9.15-.44,4.4,1.4,8.14,5.35,10.51,4.25,2.56,8.45,2.45,12.69,1.16,2.77-.84,4.69-2.32,6.78-4.73l-.04,2.27ZM146.98,59.65c-3.74,3.29-8.09,4.71-12.96,3.43-6.29-1.65-7.1-8.22-4.88-11.86,1.08-1.78,2.69-2.81,4.59-3.44,3.02-1.01,6.12-1.01,9.23-.53,1.83.29,3.68.63,5.36,1.42,1.05.49,1.22,1.29,1.24,2.3.01.92,0,1.84,0,2.76-.13,2.74-.82,4.37-2.58,5.92Z"/>
  </g>
  <g>
    <path class="cls-1" d="M198.09,27.82s0,.01.01.01c0,0,0,0,.01,0,0,0-.02-.01-.02-.02Z"/>
    <path class="cls-1" d="M202.65,20.06c.56.68,1.05,1.03,1.07,1.04-.09-.96-.3-2.05-.67-3.31,0,0-10.62,3.01-5.6,8.82-.92-2.53-.38-4.17-.28-4.41.01,1.11.9,4.08.9,4.08l.96-2.32s-.29-2.86.08-3.46l.46,2.34,1.73-3.02c-1.37,3.75-3.05,8.02-3.06,8.06.27-.01.6-.34.6-.34,0,0,2.14.18,3.6-1.33-1.28-1.11-1.37-1.57-1.41-1.72.35.46,1.67,1.39,1.69,1.41.32-.41.59-.92.78-1.55-.02-.03-1-1.42-2.04-2.2.33.09,1.15.69,2.21,1.49.1-.59.14-1.28.09-2.06-.92-.95-1.26-1.38-1.1-1.5Z"/>
  </g>
  <g>
    <path class="cls-2" d="M177.04,75.62c.56.68,1.05,1.03,1.07,1.04-.09-.96-.3-2.05-.67-3.31,0,0-10.62,3.01-5.6,8.82-.92-2.53-.38-4.17-.28-4.41.01,1.11.9,4.08.9,4.08l.96-2.32s-.29-2.86.08-3.46l.46,2.34,1.73-3.02c-1.37,3.75-3.05,8.02-3.06,8.06.27-.01.6-.34.6-.34,0,0,2.14.18,3.6-1.33-1.28-1.11-1.37-1.57-1.41-1.72.35.46,1.67,1.39,1.69,1.41.32-.41.59-.92.78-1.55-.02-.03-1-1.42-2.04-2.2.33.09,1.15.69,2.21,1.49.1-.59.14-1.28.09-2.06-.92-.95-1.26-1.38-1.1-1.5Z"/>
    <path class="cls-2" d="M172.48,83.38s0,.01.01.01c0,0,0,0,.01,0,0,0-.02-.01-.02-.02Z"/>
  </g>
  <g>
    <path class="cls-7" d="M37.9,24.4s-.04.08-.05.12c-.03.14,0,.27,0,.41s.04.28.04.41c-.2-.4-.31-.86-.31-1.31,0-.14.01-.32.03-.46.02-.18-.02-.27-.25-.34-.28,1.19-.52,2.37-.27,3.61-.26-.45-.31-1.05-.2-2.17-.13.02-.19.03-.27.04-.06.01-.06,0-.03-.04.17-.19.62-.57.25-.48-.1.02-.21.08-.21.08-.11.06-.21.15-.29.24-.16.17-.3.38-.39.59-.03.06-.05.12-.06.19-.06.27.03.67.12.93.16.48.35.81.61,1.23.14.22.3.43.46.64,0,0,.47.61.61.63,0,0,.07-.2.07-.21.02-.06.04-.12.06-.17.04-.12.09-.23.14-.34.1-.23.21-.45.34-.66.13-.22.29-.42.39-.65.12-.29.2-.6.18-.91s-.12-.62-.28-.89c-.05-.07-.09-.15-.15-.21-.03-.03-.06-.07-.09-.1,0,0-.24-.26-.44-.18Z"/>
    <path class="cls-7" d="M31.35,27.08c.06-.02.12.06.16.1.14.13.23.31.33.48s.18.35.29.51c-.09-.63-.34-1.24-.71-1.76-.11-.16-.27-.36-.4-.51-.17-.2-.2-.33.02-.6,1.29,1.15,2.54,2.32,3.25,3.95-.07-.73-.49-1.46-1.55-2.67.16-.09.24-.12.34-.17.08-.04.06-.05,0-.07-.35-.09-1.18-.15-.68-.35.13-.05.3-.07.3-.07.19-.02.36,0,.53.03.33.06.66.19.94.36.08.05.16.11.23.17.29.26.51.8.61,1.17.2.68.25,1.22.29,1.92.02.37,0,.74-.02,1.11,0,0-.04,1.09-.19,1.23,0,0-.24-.18-.26-.19-.07-.05-.14-.1-.21-.15-.14-.1-.29-.19-.44-.28-.3-.18-.61-.34-.92-.48-.33-.14-.68-.25-.98-.44-.38-.23-.72-.53-.95-.91s-.37-.81-.39-1.26c0-.12-.01-.25,0-.37,0-.06.02-.13.03-.19,0,0,.07-.49.37-.57Z"/>
    <path class="cls-6" d="M30.02,44.37c.31-1.01.3-1.69.14-2.72-.29-1.94-1.06-3.55-3.19-4.08-.38-.09-.94-.18-.81-.67.11-.4.64-.61,1.12-.53,2.27.39,3.81,1.98,4.26,4.22.19.96.22,1.95.24,2.93.04,1.8.07,3.6.11,5.4.04,2.03-.13,4.16.44,6.14.28.98.7,1.92,1.23,2.79.27.45.58.88.91,1.29.24.29.73.64.77,1.02-.49.25-1.1.08-1.58-.12-5.19-2.17-9.85-6.36-12.13-11.53-.8-1.82-1.21-3.86-1.36-5.84-.17-2.24,0-4.87,2.33-5.87.47.3.51.85.64,1.35.03.11.07.24.18.29.26.12.8-.3,1.07-.36.48-.11,1-.04,1.46.11,1.71.57,2.84,1.91,3.47,3.57.4,1.06.38,1.57.7,2.63Z"/>
    <path class="cls-1" d="M53.64,46.1c-.17.22-.39.36-.72.24-.36-.13-.25-.51-.22-.8.04-.46.2-.9.33-1.35.09-.32.19-.68.16-1.02-.01-.18-.09-.57-.29-.65-.03-.01-.07-.02-.11-.02-.22,0-.43.12-.64.17-.24.06-.49.1-.74.08-.34-.02-.75-.17-.67-.58.1-.51,1.03-.7,1.46-.75.02,0,.11-.03.22-.07.43-.13-.57-.63-.78-1.01-.14-.26-.19-.6-.04-.86.19-.33.74-.49,1.04-.32.34.19.68.6.89.91.06.09.23.25.33.29.27.1.76-.28.88-.5.07-.13.1-.3.05-.44-.02-.06-.06-.11-.09-.16-.35-.52-.69-1.07-1.13-1.52-.34-.35-.77-.65-1.26-.74-.62-.12-1.4.09-1.92.43-2.18,1.45-1.93,4.1-2.03,6.37-.13,3.11-1.76,6.19-3.34,8.8-.7,1.15-1.45,2.27-2.21,3.38-.6.88-1.79,2.18-1.49,3.34.06.26.21.51.45.77.43.45,1.05.69,1.68.76.71.07,1.45-.05,2.14-.25,3.02-.88,6.05-2.75,8.38-4.85,2.1-1.89,3.74-4.23,4.84-6.83.88-2.08,1.61-4.36,1.28-6.64-.13-.93-.3-2.27-1.02-2.27-.23,0-.52.26-.6.32-.28.21-.61.46-.89.68-.4.31-1.25.81-1.18,1.44,0,.08.04.15.09.23.29.39.79.67,1.11,1.03.24.26.43.53.35.92-.1.48-1.02-.17-1.21-.28-.32-.19-.64-.39-.97-.55-.25-.12-.68-.36-.91-.09-.11.14-.18.34-.26.5-.11.2-.21.41-.32.61l-.42.8c-.08.15-.16.31-.26.44Z"/>
    <path class="cls-3" d="M52.99,45.87c-.02-.56.28-1.41.41-1.97.11-.49.19-1-.11-1.46-.24-.36-.61-.22-.96-.1-.31.11-.63.18-.96.19-.19.01-.43-.04-.47-.22-.03-.17.15-.3.3-.37.45-.2.93-.33,1.42-.36.1,0,.23-.03.25-.13,0-.03,0-.06-.01-.09-.12-.33-.45-.52-.72-.74-.27-.22-.51-.58-.36-.89.16-.33.65-.35.96-.15.31.2.48.55.68.85.29.44.81.78,1.33.52.58-.28.9-1.17,1.04-1.75.17-.69.17-1.4.14-2.1-.1-2.51-.96-4.95-2.38-7.02s-3.47-3.8-5.74-4.96c-2.44-1.24-5.18-1.87-7.91-1.87-8.16,0-14.09,5.41-15.1,12.49h-1.83c1.02-7.97,7.77-14.11,16.93-14.11,9.86,0,17.86,7.17,17.86,16.01,0,.22-.03.44-.04.66-.19,1.2-.53,2.48-1.76,3.45,0,0-.43.39-.04.85.29.34.68.58,1.02.87.2.18.54.42.7.64.18.24.16.66-.21.47-.39-.2-.88-.61-1.25-.85-.32-.21-.59-.48-1.01-.43-.48.06-.74.47-.9.89-.25.65-.43,1.28-.9,1.81-.22.25-.39.19-.4-.13Z"/>
  </g>
  <g>
    <path class="cls-7" d="M215.36,92.53s-.02.11-.05.15c-.08.14-.2.25-.32.37s-.25.22-.35.34c.49-.21.93-.54,1.27-.95.11-.13.23-.3.32-.43.12-.18.22-.23.49-.12-.65,1.29-1.33,2.54-2.49,3.47.57-.21,1.07-.71,1.82-1.82.1.11.15.17.21.24.04.05.06.04.05,0,0-.3-.13-.98.14-.63.07.09.12.23.12.23.06.15.08.29.09.44.02.28-.01.57-.09.83-.02.08-.05.15-.09.22-.15.29-.54.58-.81.75-.51.31-.93.47-1.48.65-.29.1-.6.17-.9.23,0,0-.89.2-1.03.11,0,0,.09-.23.09-.25.03-.07.05-.14.07-.21.05-.14.09-.28.13-.42.08-.28.15-.56.19-.85.04-.3.06-.6.14-.89.1-.35.27-.7.53-.96s.58-.47.93-.59c.1-.03.2-.06.3-.08.05,0,.11-.01.16-.02,0,0,.41-.05.54.17Z"/>
    <path class="cls-4" d="M205.53,86.47c-9.17,0-16.71,6.2-17.73,14.17h.06c.5-.31,1.15-.57,1.9-.67,1.33-6.75,7.87-11.88,15.77-11.88,8.86,0,16.05,6.44,16.05,14.39,0,.22-.03.44-.04.66h1.81c0-.22.04-.44.04-.66,0-8.84-8-16.01-17.86-16.01Z"/>
    <path class="cls-4" d="M194.62,114.91c1.95-5.17,1.54-9.83.59-11.83-.22-.47-1.23-1.84-2.78-2.61.76.49,1.25,1.09,1.54,2.04.09.31.17.63.18.96.01.29-.02.59-.06.88,0,.02,0,.04,0,.06-.1-.3-.22-.6-.35-.9-.12-.25-.24-.5-.39-.74-.13-.21-.26-.4-.42-.59-.13-.16-.28-.32-.43-.46-.14-.13-.28-.24-.43-.34-.14-.09-.28-.17-.42-.24-.13-.06-.27-.12-.41-.16-.12-.04-.25-.07-.38-.09-.24-.04-.48-.05-.72-.03-.06,0-.11.01-.17.03-.03,0-.06.01-.09.02,0,0-.07.03-.07.03,1.18.85.7,3.39.44,4.11-.03-.33-.07-.66-.13-.99-.04-.27-.09-.54-.16-.81-.05-.22-.11-.44-.18-.65-.06-.17-.12-.34-.2-.51-.06-.13-.13-.26-.21-.38-.06-.1-.13-.19-.21-.27-.06-.07-.13-.13-.2-.18-.06-.04-.13-.08-.19-.11-.06-.02-.12-.04-.18-.05-.08-.01-.16-.01-.25,0-.04,0-.08.02-.12.03-.03.01-.05.02-.07.05-.06.07-.11.15-.16.23-.1.18-.18.37-.24.57-.07.21-.11.43-.15.64s-.06.42-.08.62c-.02.17-.03.34-.04.52,0,.11,0,.21,0,.32,0,.02,0,.04,0,.06-.16-.42-.16-1.05-.16-1.57,0-.56.04-1.08.08-1.64-.39.28-.6.52-.74.66-2.84,2.82-2.07,7.46-1.69,9.74.84,5.1,3.67,8.43,4.84,9.77,1.7,1.96,3.45,3.24,4.67,4.15l.6.45s-2.96-4.16-.46-10.8Z"/>
    <path class="cls-2" d="M227.58,105.37c-.37-.81-.99-1.47-1.76-1.92-.69-.4-1.47-.64-2.26-.76-.68-.11-1.36-.14-2.04-.11-1.08.05-2.14-.25-3.23-.13-1.99.22-3.95,1.83-4.48,3.77-.43,1.57-.08,3.31.28,4.86.61,2.64,1.89,5.13,2.1,7.85.05,1.12-.11,2.25-.43,3.32-.31,1.06-2.47,4.53-5.03,5.72,1.94-.32,5.87-1.25,9.69-4.3.93-.74,3.36-2.82,5.3-6.37,1.49-2.73,3.65-8.04,1.87-11.94ZM217.53,105.81c-1.44,1.16-1.79,2.95-2,4.14-.07-.13-.11-.28-.16-.43-.18-.61-.26-1.25-.21-1.88.07-.83.41-1.62.9-2.28.2-.27.52-.59.81-.77.32-.2.67-.36,1.04-.45.38-.1.77-.11,1.15-.11.23,0,.68-.02.78.25.1.27-1.03.48-2.31,1.52Z"/>
    <path class="cls-1" d="M204.12,111.19c.21.08.43.05.62-.06l1.04-.64c-.28-.03-.57-.04-.86-.04-.74,0-1.41.11-2.12.24l1.31.51Z"/>
    <path class="cls-8" d="M205.09,113.58c.09-.2.26-.23.46-.19.26.05.53.1.79.14.72.12,1.45.25,2.17.27.09,0,.18,0,.27,0,.03,0,.11,0,.13-.02.07-.07-.64-.35-.71-.38-.61-.26-1.22-.5-1.83-.74-.09-.03-.18-.07-.27-.1-.22-.13-.31-.4-.21-.64.34-.63.71-1.28,1.01-1.89.25-.51-.91.67-1.37,1l-.67.49c-.17.13-.38.3-.61.24-.08-.02-.15-.06-.23-.11-.89-.52-1.6-1.16-2.56-1.63-.58-.28,1.59,2.06,1.59,2.06.46.57-.5,1-.87,1.26-.55.39-1.1.78-1.63,1.2-.1.07-.19.15-.29.23-.05.04-.33.3-.11.23.55-.18,1.08-.43,1.6-.68s1.04-.5,1.55-.76c.26-.13.52.01.67.24.14.22.16.48.22.73.07.33.17.65.26.98.04.17.09.34.12.51.01.06.02.12.05.17.01.03.04.09.05.02.09-.55.18-1.72.3-2.26.03-.11.05-.26.11-.38Z"/>
    <path class="cls-1" d="M206.84,110.64l-.33.79c-.14.33-.01.71.3.89,0,0,3.35,1.62,3,1.68-1.1.17-3.97-.4-3.98-.4-.31-.06-.39.37-.44.59-.08.32-.14.65-.23.98-.13.5-.26.99-.39,1.49-.17.64-.8-2.38-.8-2.38-.12-.37-.52-.57-.89-.45,0,0-2.48,1.36-3.89,1.81-1,.32,3.13-2.9,3.13-2.9.35-.24.41-.73.13-1.05l-.62-.72c-3.45,1.23-5.92,4.44-5.92,8.22,0,4.84,4.04,8.76,9.01,8.76s9.01-3.92,9.01-8.76c0-4.2-3.04-7.7-7.09-8.56ZM207.11,126.68c-.05,0-.11,0-.16,0,3.1-.26,5.65-4.34,5.47-7.37-.03-.49-.13-.96-.28-1.4.36.6.56,1.27.62,1.99.25,2.88-2.48,6.59-5.65,6.78Z"/>
  </g>
</svg>